<?xml version="1.0" encoding="utf-8"?>
<!-- Generator: Adobe Illustrator 16.0.0, SVG Export Plug-In . SVG Version: 6.00 Build 0)  -->
<!DOCTYPE svg PUBLIC "-//W3C//DTD SVG 1.1//EN" "http://www.w3.org/Graphics/SVG/1.1/DTD/svg11.dtd">
<svg version="1.1" id="Layer_1" xmlns="http://www.w3.org/2000/svg" xmlns:xlink="http://www.w3.org/1999/xlink" x="0px" y="0px"
	 width="59.334px" height="57px" viewBox="0 0 59.334 57" enable-background="new 0 0 59.334 57" xml:space="preserve">
<path fill="#A5ACB2" d="M22.763,43.965c1.416-0.293,2.646-0.839,3.688-1.637c0.923-0.694,1.694-1.551,2.313-2.568
	c0.968-1.537,1.451-3.27,1.451-5.205c0-1.875-0.424-3.469-1.271-4.783c-0.849-1.313-2.104-2.273-3.771-2.878
	c1.096-0.56,1.926-1.18,2.491-1.86c1.006-1.208,1.512-2.812,1.512-4.805c0-1.933-0.501-3.595-1.499-4.982
	c-1.66-2.257-4.479-3.416-8.458-3.476H3.443v32.638H18.15C19.806,44.408,21.347,44.262,22.763,43.965 M9.953,17.439h7.102
	c1.563,0,2.849,0.169,3.856,0.51c1.171,0.486,1.755,1.49,1.755,3.011c0,1.373-0.443,2.329-1.328,2.867
	c-0.882,0.539-2.033,0.809-3.451,0.809H9.953V17.439z M9.953,38.74v-8.7h8.033c1.405,0.015,2.487,0.198,3.264,0.554
	c1.385,0.633,2.078,1.799,2.078,3.496c0,2.008-0.715,3.366-2.146,4.077c-0.785,0.383-1.889,0.574-3.303,0.574L9.953,38.74
	L9.953,38.74z"/>
<path fill="#A5ACB2" d="M35.743,42.259c2.454,1.981,5.289,2.97,8.5,2.97c3.894,0,6.92-1.172,9.079-3.521
	c1.393-1.478,2.172-2.931,2.342-4.362h-6.443c-0.375,0.709-0.81,1.262-1.301,1.659c-0.898,0.739-2.066,1.108-3.504,1.108
	c-1.355,0-2.516-0.303-3.479-0.908c-1.584-0.975-2.426-2.672-2.523-5.094h17.578c0.029-2.084-0.039-3.68-0.208-4.789
	c-0.293-1.892-0.935-3.556-1.925-4.989c-1.094-1.625-2.484-2.817-4.17-3.57c-1.682-0.754-3.573-1.131-5.676-1.131
	c-3.535,0-6.412,1.116-8.63,3.347c-2.217,2.229-3.325,5.435-3.325,9.617C32.059,37.059,33.288,40.277,35.743,42.259 M40.25,26.214
	c0.895-0.918,2.146-1.378,3.766-1.378c1.49,0,2.739,0.434,3.746,1.299c1.006,0.868,1.565,2.141,1.68,3.814H38.57
	C38.798,28.379,39.357,27.134,40.25,26.214"/>
<rect x="36.512" y="13.647" fill="#A5ACB2" width="14.184" height="3.294"/>
</svg>
