<?xml version="1.0" encoding="utf-8"?>
<!-- Generator: Adobe Illustrator 16.0.0, SVG Export Plug-In . SVG Version: 6.00 Build 0)  -->
<!DOCTYPE svg PUBLIC "-//W3C//DTD SVG 1.1//EN" "http://www.w3.org/Graphics/SVG/1.1/DTD/svg11.dtd">
<svg version="1.1" id="Layer_1" xmlns="http://www.w3.org/2000/svg" xmlns:xlink="http://www.w3.org/1999/xlink" x="0px" y="0px"
	 width="36.125px" height="36.125px" viewBox="0 0 36.125 36.125" enable-background="new 0 0 36.125 36.125" xml:space="preserve">
<rect x="1.405" y="12.22" fill="#F8FAFB" width="7.051" height="22.774"/>
<path fill="#F8FAFB" d="M4.896,9.236c2.303,0,4.168-1.883,4.168-4.203S7.199,0.832,4.896,0.832S0.729,2.713,0.729,5.033
	S2.594,9.236,4.896,9.236"/>
<path fill="#F8FAFB" d="M19.724,23.038c0-3.202,1.475-5.108,4.297-5.108c2.592,0,3.837,1.83,3.837,5.108v11.955h7.017v-14.42
	c0-6.101-3.458-9.049-8.286-9.049c-4.831,0-6.864,3.763-6.864,3.763v-3.068h-6.762v22.774h6.762V23.038z"/>
</svg>
