<?xml version="1.0" encoding="utf-8"?>
<!-- Generator: Adobe Illustrator 16.0.0, SVG Export Plug-In . SVG Version: 6.00 Build 0)  -->
<!DOCTYPE svg PUBLIC "-//W3C//DTD SVG 1.1//EN" "http://www.w3.org/Graphics/SVG/1.1/DTD/svg11.dtd">
<svg version="1.1" id="Layer_1" xmlns="http://www.w3.org/2000/svg" xmlns:xlink="http://www.w3.org/1999/xlink" x="0px" y="0px"
	 width="45.125px" height="57px" viewBox="6.5 0 45.125 57" enable-background="new 6.5 0 45.125 57" xml:space="preserve">
<path fill="#A5ACB2" d="M29,47.422c-5.259,0-5.948-0.021-8.023-0.113c-1.879-0.084-3.336-0.354-4.726-0.879
	c-1.36-0.515-2.424-1.188-3.449-2.184c-1.024-0.996-1.717-2.03-2.245-3.354c-0.54-1.35-0.819-2.767-0.906-4.593
	c-0.094-2.019-0.116-2.688-0.116-7.8c0-5.111,0.022-5.782,0.116-7.799c0.087-1.827,0.366-3.244,0.906-4.594
	c0.528-1.323,1.222-2.357,2.245-3.352c1.025-0.996,2.089-1.67,3.449-2.183c1.389-0.525,2.847-0.797,4.726-0.88
	C23.047,9.6,23.736,9.578,29,9.578c5.264,0,5.953,0.022,8.023,0.114c1.879,0.083,3.336,0.354,4.726,0.88
	c1.36,0.514,2.425,1.187,3.448,2.183c1.023,0.995,1.718,2.029,2.246,3.352c0.539,1.351,0.818,2.768,0.904,4.594
	c0.096,2.018,0.116,2.689,0.116,7.799c0,5.109-0.021,5.781-0.116,7.8c-0.086,1.825-0.365,3.242-0.904,4.593
	c-0.528,1.323-1.221,2.357-2.246,3.354c-1.023,0.996-2.088,1.669-3.448,2.184c-1.39,0.524-2.847,0.795-4.726,0.879
	C34.949,47.4,34.258,47.422,29,47.422 M29,12.997c-5.2,0-5.814,0.02-7.863,0.11c-1.896,0.085-2.927,0.392-3.613,0.651
	c-0.906,0.343-1.554,0.753-2.234,1.414c-0.68,0.661-1.103,1.291-1.454,2.173c-0.267,0.667-0.583,1.669-0.67,3.511
	c-0.094,1.992-0.113,2.589-0.113,7.644c0,5.055,0.02,5.652,0.113,7.645c0.087,1.842,0.403,2.844,0.67,3.51
	c0.352,0.883,0.774,1.513,1.454,2.174c0.681,0.662,1.328,1.07,2.234,1.414c0.687,0.259,1.716,0.566,3.613,0.65
	c2.048,0.092,2.663,0.11,7.863,0.11s5.814-0.019,7.863-0.11c1.896-0.084,2.927-0.392,3.611-0.65
	c0.907-0.344,1.555-0.752,2.235-1.414c0.681-0.661,1.103-1.291,1.454-2.174c0.268-0.666,0.583-1.668,0.67-3.51
	c0.094-1.998,0.113-2.597,0.113-7.645s-0.02-5.646-0.113-7.644c-0.087-1.843-0.402-2.844-0.67-3.511
	c-0.354-0.882-0.773-1.512-1.454-2.173c-0.681-0.661-1.328-1.071-2.235-1.414c-0.687-0.259-1.716-0.566-3.611-0.651
	C34.814,13.017,34.201,12.997,29,12.997"/>
<path fill="#A5ACB2" d="M29,18.883c-5.464,0-9.895,4.306-9.895,9.617c0,5.313,4.431,9.617,9.895,9.617s9.893-4.305,9.893-9.617
	C38.893,23.189,34.464,18.883,29,18.883 M29,34.743c-3.547,0-6.422-2.796-6.422-6.243c0-3.447,2.875-6.242,6.422-6.242
	s6.422,2.795,6.422,6.242C35.422,31.947,32.547,34.743,29,34.743"/>
<path fill="#A5ACB2" d="M41.723,18.402c0,1.253-1.045,2.271-2.334,2.271c-1.291,0-2.336-1.017-2.336-2.271s1.045-2.27,2.336-2.27
	C40.678,16.132,41.723,17.148,41.723,18.402"/>
</svg>
