<?xml version="1.0" encoding="utf-8"?>
<!-- Generator: Adobe Illustrator 16.0.0, SVG Export Plug-In . SVG Version: 6.00 Build 0)  -->
<!DOCTYPE svg PUBLIC "-//W3C//DTD SVG 1.1//EN" "http://www.w3.org/Graphics/SVG/1.1/DTD/svg11.dtd">
<svg version="1.1" id="Layer_1" xmlns="http://www.w3.org/2000/svg" xmlns:xlink="http://www.w3.org/1999/xlink" x="0px" y="0px"
	 width="36.125px" height="36.125px" viewBox="0 0 36.125 36.125" enable-background="new 0 0 36.125 36.125" xml:space="preserve">
<path fill="#F8FAFB" d="M18.063,34.605c-4.598,0-5.201-0.019-7.016-0.099c-1.642-0.073-2.916-0.311-4.131-0.77
	c-1.189-0.449-2.119-1.038-3.015-1.909c-0.896-0.87-1.501-1.773-1.964-2.931c-0.473-1.18-0.716-2.419-0.791-4.016
	c-0.084-1.765-0.103-2.351-0.103-6.818c0-4.469,0.019-5.055,0.103-6.819c0.075-1.597,0.318-2.836,0.791-4.016
	c0.463-1.157,1.067-2.062,1.964-2.931c0.896-0.871,1.825-1.459,3.015-1.909c1.214-0.459,2.489-0.695,4.131-0.77
	c1.811-0.08,2.413-0.099,7.016-0.099c4.602,0,5.204,0.019,7.015,0.099c1.642,0.074,2.916,0.311,4.131,0.77
	c1.188,0.45,2.12,1.038,3.015,1.909c0.896,0.871,1.501,1.773,1.965,2.931c0.472,1.181,0.715,2.42,0.79,4.016
	c0.083,1.765,0.103,2.352,0.103,6.819c0,4.467-0.02,5.054-0.103,6.818c-0.075,1.596-0.318,2.834-0.79,4.016
	c-0.464,1.156-1.068,2.061-1.965,2.931c-0.895,0.871-1.826,1.459-3.015,1.909c-1.215,0.459-2.489,0.696-4.131,0.77
	C23.262,34.586,22.66,34.605,18.063,34.605 M18.063,4.508c-4.547,0-5.084,0.018-6.875,0.097C9.531,4.679,8.629,4.948,8.031,5.174
	c-0.794,0.3-1.36,0.658-1.955,1.235c-0.595,0.579-0.963,1.129-1.271,1.9c-0.232,0.583-0.51,1.459-0.586,3.069
	c-0.081,1.741-0.099,2.265-0.099,6.684s0.018,4.941,0.099,6.682c0.076,1.611,0.354,2.487,0.586,3.07
	c0.309,0.771,0.677,1.321,1.271,1.9c0.595,0.578,1.161,0.936,1.955,1.234c0.599,0.228,1.499,0.496,3.157,0.57
	c1.79,0.079,2.328,0.096,6.875,0.096c4.545,0,5.082-0.017,6.875-0.096c1.657-0.074,2.558-0.343,3.156-0.57
	c0.793-0.299,1.36-0.656,1.955-1.234c0.594-0.579,0.963-1.129,1.271-1.9c0.232-0.583,0.51-1.458,0.586-3.07
	c0.081-1.746,0.099-2.269,0.099-6.682s-0.018-4.938-0.099-6.684c-0.076-1.611-0.354-2.486-0.586-3.069
	c-0.309-0.771-0.678-1.322-1.271-1.9c-0.595-0.577-1.161-0.936-1.955-1.235c-0.599-0.227-1.5-0.495-3.156-0.569
	C23.145,4.526,22.608,4.508,18.063,4.508"/>
<path fill="#F8FAFB" d="M18.063,9.655c-4.777,0-8.649,3.765-8.649,8.407c0,4.644,3.872,8.408,8.649,8.408
	c4.776,0,8.648-3.765,8.648-8.408C26.711,13.419,22.839,9.655,18.063,9.655 M18.063,23.52c-3.102,0-5.614-2.443-5.614-5.458
	c0-3.014,2.513-5.457,5.614-5.457c3.101,0,5.613,2.443,5.613,5.457C23.676,21.077,21.164,23.52,18.063,23.52"/>
<path fill="#F8FAFB" d="M29.186,9.235c0,1.096-0.914,1.983-2.043,1.983c-1.127,0-2.041-0.888-2.041-1.983
	c0-1.097,0.914-1.984,2.041-1.984C28.272,7.25,29.186,8.138,29.186,9.235"/>
</svg>
