<?xml version="1.0" encoding="utf-8"?>
<!-- Generator: Adobe Illustrator 16.0.0, SVG Export Plug-In . SVG Version: 6.00 Build 0)  -->
<!DOCTYPE svg PUBLIC "-//W3C//DTD SVG 1.1//EN" "http://www.w3.org/Graphics/SVG/1.1/DTD/svg11.dtd">
<svg version="1.1" id="Layer_1" xmlns="http://www.w3.org/2000/svg" xmlns:xlink="http://www.w3.org/1999/xlink" x="0px" y="0px"
	 width="47.5px" height="57px" viewBox="5.25 0 47.5 57" enable-background="new 5.25 0 47.5 57" xml:space="preserve">
<rect x="9.373" y="21.685" fill="#A5ACB2" width="8.438" height="27.264"/>
<path fill="#A5ACB2" d="M13.552,18.114c2.756,0,4.989-2.254,4.989-5.032s-2.233-5.03-4.989-5.03c-2.758,0-4.991,2.252-4.991,5.03
	S10.794,18.114,13.552,18.114"/>
<path fill="#A5ACB2" d="M31.303,34.637c0-3.834,1.764-6.117,5.143-6.117c3.104,0,4.594,2.191,4.594,6.117v14.311h8.4V31.686
	c0-7.304-4.141-10.833-9.92-10.833c-5.783,0-8.217,4.504-8.217,4.504v-3.672h-8.096v27.263h8.096V34.637z"/>
</svg>
