<?xml version="1.0" encoding="utf-8"?>
<!-- Generator: Adobe Illustrator 16.0.0, SVG Export Plug-In . SVG Version: 6.00 Build 0)  -->
<!DOCTYPE svg PUBLIC "-//W3C//DTD SVG 1.1//EN" "http://www.w3.org/Graphics/SVG/1.1/DTD/svg11.dtd">
<svg version="1.1" id="Layer_1" xmlns="http://www.w3.org/2000/svg" xmlns:xlink="http://www.w3.org/1999/xlink" x="0px" y="0px"
	 width="73px" height="71px" viewBox="0 0 73 71" enable-background="new 0 0 73 71" xml:space="preserve">
<polygon fill="#430098" points="68.25,61.167 56.833,63.917 34.667,35.5 69.583,47.584 "/>
<path fill="#FFFFFF" d="M0,0v71h73V0H0z M34.89,60.97c-0.913,0-1.828-0.064-2.733-0.195c-6.838-0.697-13.035-4.33-16.984-9.955
	c-3.631-4.928-5.322-11.02-4.75-17.114c1.302-11.778,12.494-23.295,27.07-21.734c5.534,0.665,10.688,3.162,14.641,7.093v-7.678
	h5.206v18.09H39.25v-5.205h10.541c-3.219-3.938-7.835-6.479-12.885-7.094c-12.558-1.366-20.431,9.045-21.342,17.114
	c-0.363,4.825,0.997,9.62,3.839,13.536c3.096,4.391,7.933,7.234,13.275,7.807c9.891,1.041,17.178-5.336,20.041-12.232l4.816,2.018
	C54.216,53.423,46.017,60.97,34.89,60.97z"/>
</svg>
