<?xml version="1.0" encoding="utf-8"?>
<!-- Generator: Adobe Illustrator 16.0.0, SVG Export Plug-In . SVG Version: 6.00 Build 0)  -->
<!DOCTYPE svg PUBLIC "-//W3C//DTD SVG 1.1//EN" "http://www.w3.org/Graphics/SVG/1.1/DTD/svg11.dtd">
<svg version="1.1" id="Layer_1" xmlns="http://www.w3.org/2000/svg" xmlns:xlink="http://www.w3.org/1999/xlink" x="0px" y="0px"
	 width="667.087px" height="96.106px" viewBox="0 0 667.087 96.106" enable-background="new 0 0 667.087 96.106"
	 xml:space="preserve">
<path fill="#430098" d="M65.015,61.629v0.123c0,22.994-12.635,32.354-26.593,32.354c-7.985,0-14.073-3.027-18.09-8.829v7.729H2.394
	V5.325h20.844v29.341c3.865-3.511,8.963-5.348,15.184-5.348C52.379,29.317,65.015,38.703,65.015,61.629 M43.005,61.496
	c0-12.121-3.649-17.907-9.989-17.907c-6.401,0-9.779,5.742-9.779,17.793v0.549c0,12.105,3.378,17.871,9.779,17.871
	c6.339,0,9.989-5.865,9.989-18.177V61.496z"/>
<path fill="#430098" d="M113.182,30.146v20.014c0,0-2.036-1.721-7-1.721c-6.554,0-14.073,3.391-14.073,17.674v26.911H71.265V30.397
	h17.652v11.896c3.274-8.61,9.201-12.945,17.371-12.945C108.963,29.348,111.182,29.599,113.182,30.146"/>
<path fill="#430098" d="M244.04,51.888l-0.008,41.136h-20.844V53.901c0-5.244-2.914-7.812-7.651-7.812
	c-6.048,0-10.542,3.74-10.542,12.627v4.524h-0.004v29.783h-20.848V30.399h17.658v8.228c4.544-6.389,11.669-9.308,19.901-9.308
	C235.083,29.319,244.04,36.384,244.04,51.888"/>
<path fill="#430098" d="M313.719,5.353V93.03h-17.939v-7.751c-4.015,5.8-10.105,8.825-18.09,8.825
	c-13.956,0-26.594-9.352-26.594-32.343v-0.125c0-22.925,12.638-32.317,26.594-32.317c6.22,0,11.319,1.835,15.184,5.35V5.353H313.719
	z M292.874,61.38c0-12.051-3.379-17.793-9.78-17.793c-6.339,0-9.989,5.786-9.989,17.909v0.127c0,12.316,3.65,18.181,9.989,18.181
	c6.401,0,9.78-5.766,9.78-17.875V61.38z"/>
<path fill="#430098" d="M360.825,43.989h-12.109v49.035h-20.848V43.989h-7.78v-13.59h7.78v-4.733
	c0-13.562,6.623-21.384,22.001-21.384c4.026,0,7.268,0.286,10.837,0.86V20.41c-1.614-0.326-3.103-0.49-4.446-0.49
	c-4.749,0-7.545,1.732-7.545,6.877v3.602h12.109V43.989z"/>
<path fill="#430098" d="M427.536,30.397v62.627h-17.658v-8.236c-4.54,6.387-11.669,9.317-19.901,9.317
	c-13.377,0-22.335-7.063-22.335-22.568l0.004-41.14h20.845v39.128c0.073,5.24,2.918,7.808,7.651,7.808
	c6.05,0,10.545-3.742,10.545-12.624l0.004-34.313H427.536z"/>
<path fill="#430098" d="M474.466,50.386v-0.189c0-5.366-3.943-7.416-9.751-7.416c-6.038,0-8.425,2.683-8.425,5.589v0.133
	c0,11.85,37.913-0.521,37.913,25.223v0.126c0,13.443-10.248,20.25-30.117,20.25c-21.907,0-29.043-9.417-29.043-21.209v-0.366
	l18.542,0.008v0.193c0,5.338,4.134,7.875,10.333,7.875c4.914,0,9.183-1.692,9.183-5.746v-0.125c0-11.406-37.268,0.125-37.268-26.264
	v-0.193c0-12.728,10.827-18.958,29.04-18.958c20.506,0,28.075,8.536,28.075,20.647v0.422H474.466z"/>
<polygon fill="#430098" points="522.577,21.041 501.746,21.041 501.733,5.347 522.577,5.347 "/>
<rect x="501.731" y="30.401" fill="#430098" width="20.843" height="62.625"/>
<path fill="#430098" d="M530.228,61.685v-0.126c0-20.765,11.301-32.249,32.018-32.249c20.894,0,32.284,11.484,32.284,32.249v0.126
	c0,20.87-11.39,32.406-32.284,32.406C541.529,94.091,530.228,82.555,530.228,61.685 M572.521,61.685v-0.126
	c0-13.225-4.028-17.961-10.154-17.961c-6.094,0-10.125,4.667-10.125,17.961v0.126c0,13.259,4.031,18.096,10.125,18.117
	C568.493,79.826,572.521,75.05,572.521,61.685"/>
<path fill="#430098" d="M662.082,51.888l-0.008,41.136h-20.842V53.901c0-5.244-2.914-7.812-7.648-7.812
	c-6.05,0-10.544,3.74-10.544,12.627v4.524h-0.008v29.783H602.19V30.399h17.654v8.228c4.546-6.389,11.673-9.308,19.905-9.308
	C653.127,29.319,662.082,36.384,662.082,51.888"/>
<path fill="#430098" d="M145.985,29.317c-19.177,0-27.924,7.002-27.952,21.413h18.492c0.125-4.261,3.015-7.199,8.513-7.199
	c5.539,0,8.425,2.361,8.425,7.659v3.951l-14.233,1.178c-15.534,1.288-23.157,7.33-23.157,19.119v0.126
	c0,11.876,8.648,18.404,21.597,18.404c8.68,0,14.477-2.969,17.855-7.957v7.014h18.777l0.004-42.507
	C174.308,34.907,162.325,29.317,145.985,29.317 M153.464,69.493c0,6.637-3.461,10.534-9.685,10.534
	c-4.948,0-7.635-2.526-7.635-6.576v-0.125c0-3.578,1.963-6.729,8.083-7.173l9.237-0.679V69.493z"/>
</svg>
