<?xml version="1.0" encoding="utf-8"?>
<!-- Generator: Adobe Illustrator 16.0.0, SVG Export Plug-In . SVG Version: 6.00 Build 0)  -->
<!DOCTYPE svg PUBLIC "-//W3C//DTD SVG 1.1//EN" "http://www.w3.org/Graphics/SVG/1.1/DTD/svg11.dtd">
<svg version="1.1" id="Layer_1" xmlns="http://www.w3.org/2000/svg" xmlns:xlink="http://www.w3.org/1999/xlink" x="0px" y="0px"
	 width="38.375px" height="24.5px" viewBox="0 0 38.375 24.5" enable-background="new 0 0 38.375 24.5" xml:space="preserve">
<path fill="#F3F4F6" d="M36.567,20.711l-9.821-7.453l9.821-6.172V20.711z M3.261,22.691l10.132-7.492l5.745,3.416l5.396-3.609
	l10.56,7.686c-0.312,0.311-0.699,0.466-1.204,0.466H4.464C3.959,23.157,3.57,23.002,3.261,22.691 M19.138,14.383L1.785,3.359
	c0-1.164,0.97-2.213,2.174-2.213h30.474c1.203,0,2.135,1.049,2.135,2.213L19.138,14.383z M11.606,13.258l-9.821,7.453V7.086
	L11.606,13.258z"/>
</svg>
